<svg version="1.0" xmlns="http://www.w3.org/2000/svg" width="800.000000pt" height="600.000000pt" viewBox="0 0 800.000000 600.000000" preserveAspectRatio="xMidYMid meet">

<g transform="translate(0.000000,600.000000) scale(0.100000,-0.100000)" fill="#000000" stroke="none">
<path d="M2691 4131 c-8 -15 -4 -27 23 -62 28 -37 267 -357 855 -1147 58 -78
106 -149 106 -156 0 -8 -101 -151 -225 -317 -124 -166 -226 -306 -228 -311 -2
-4 58 -8 132 -8 l136 0 308 413 c169 226 321 431 337 454 17 24 33 43 38 43 6
0 692 -912 721 -958 6 -9 -39 -12 -203 -12 l-209 0 -152 205 c-84 113 -154
205 -155 205 -11 0 -136 -183 -131 -193 3 -6 76 -106 163 -222 l159 -210 466
-3 c449 -2 468 -1 477 17 8 15 4 27 -23 62 -36 47 -662 887 -855 1148 -98 131
-113 156 -103 171 6 10 110 152 232 314 121 163 220 298 220 301 0 3 -61 5
-135 5 l-135 0 -315 -422 c-173 -233 -327 -439 -343 -458 l-29 -34 -354 474
c-195 261 -358 481 -362 488 -7 9 36 12 201 12 l210 0 152 -205 c84 -113 154
-205 155 -205 5 0 135 177 135 184 0 3 -74 105 -165 226 l-165 220 -465 0
c-444 0 -465 -1 -474 -19z" data-index="0" style="visibility: visible; opacity: 1; fill: rgb(66, 66, 66);"></path>
<path d="M4345 4118 c-14 -18 -134 -179 -268 -358 -133 -178 -246 -324 -251
-325 -6 0 -83 98 -173 218 l-163 217 -135 0 c-74 0 -135 -2 -135 -5 0 -3 128
-177 285 -388 157 -210 293 -393 303 -406 l17 -23 55 74 c30 40 178 239 329
441 l273 367 210 0 c165 0 208 -3 201 -12 -4 -7 -119 -162 -255 -345 -136
-182 -248 -335 -248 -339 0 -16 133 -184 140 -177 4 4 168 224 365 488 196
264 372 500 391 524 27 35 31 47 23 62 -9 18 -30 19 -474 19 l-464 0 -26 -32z" data-index="1" style="visibility: visible; opacity: 1;"></path>
<path d="M3208 2593 c-147 -197 -325 -436 -397 -532 -107 -144 -128 -177 -120
-193 9 -17 33 -18 474 -18 l465 0 268 358 c147 196 272 357 277 356 6 0 83
-98 173 -217 l162 -217 135 0 c74 0 135 2 135 5 0 5 -582 788 -599 808 -4 4
-32 -25 -62 -65 -30 -40 -177 -239 -328 -441 l-273 -367 -210 0 c-165 0 -208
3 -201 13 4 6 119 161 255 344 136 182 248 335 248 339 0 6 -129 184 -134 184
-1 0 -122 -161 -268 -357z" data-index="2" style="visibility: visible; opacity: 1;"></path>
</g>
</svg>